<svg width="38" height="32" viewBox="0 0 38 32" fill="none" xmlns="http://www.w3.org/2000/svg">
<path d="M0.5 24.5C0.5 24.5256 0.500983 24.5512 0.502946 24.5767C0.596348 25.7909 1.03676 27.5963 2.08794 29.1283C3.16579 30.6991 4.90875 32 7.5 32H30C30.0238 32 30.0475 31.9992 30.0712 31.9975C31.3985 31.9027 33.3511 31.3731 34.9956 30.0716C36.6806 28.7381 38 26.6218 38 23.5V14H36V23.5C36 25.9782 34.986 27.5286 33.7544 28.5034C32.4964 29.499 30.9694 29.9212 29.9627 30H7.5C5.69125 30 4.51754 29.1342 3.73706 27.9967C2.94021 26.8354 2.57957 25.4126 2.5 24.46V14H0.5V24.5ZM27 1H11C7.68629 1 5 3.68629 5 7V20C5 23.3137 7.68629 26 11 26H27C30.3137 26 33 23.3137 33 20V7C33 3.68629 30.3137 1 27 1Z" stroke="white" stroke-opacity="0.2" stroke-width="2" stroke-linejoin="round"/>
</svg>
